# xmcd
#
# Track frame offsets: 
#        150
#        18741
#        37568
#        51273
#
# Disc length: 842 seconds
#
# Revision: 1
# Processed by: cddbd v1.5.2PL0 Copyright (c) Steve Scherf et al.
# Submitted via: ExactAudioCopy v0.99pb4
#
DISCID=27034804
DTITLE=Jamie Lidell - Jim [Bonus CD]
DYEAR=2008
DGENRE=Soul
TTITLE0=Multipy
TTITLE1=What's The Use?
TTITLE2=What Is It This Time?
TTITLE3=Game For Fools
EXTD=
EXTT0=
EXTT1=
EXTT2=
EXTT3=
PLAYORDER=
